<?xml version="1.0" encoding="UTF-8" standalone="no"?>
<svg
   width="200"
   height="200"
   viewBox="0 0 200 200"
   fill="none"
   version="1.1"
   id="svg2"
   sodipodi:docname="shape-49.svg"
   inkscape:version="1.4 (e7c3feb100, 2024-10-09)"
   xmlns:inkscape="http://www.inkscape.org/namespaces/inkscape"
   xmlns:sodipodi="http://sodipodi.sourceforge.net/DTD/sodipodi-0.dtd"
   xmlns="http://www.w3.org/2000/svg"
   xmlns:svg="http://www.w3.org/2000/svg">
  <sodipodi:namedview
     id="namedview2"
     pagecolor="#ffffff"
     bordercolor="#000000"
     borderopacity="0.25"
     inkscape:showpageshadow="2"
     inkscape:pageopacity="0.0"
     inkscape:pagecheckerboard="0"
     inkscape:deskcolor="#d1d1d1"
     inkscape:zoom="3.91"
     inkscape:cx="100.12788"
     inkscape:cy="100"
     inkscape:window-width="1920"
     inkscape:window-height="1007"
     inkscape:window-x="0"
     inkscape:window-y="36"
     inkscape:window-maximized="1"
     inkscape:current-layer="g1" />
  <g
     clip-path="url(#clip0_105_672)"
     id="g1"
     transform="matrix(0.98337596,0,0,0.98465473,1.6624041,1.534527)"
     style="fill:#000000">
    <path
       fill-rule="evenodd"
       clip-rule="evenodd"
       d="M 18.4046,100.422 C 8.31777,102.425 0.714259,111.325 0.714259,122 l -3e-6,56 c 0,12.15 9.849744,22 22.000044,22 h 56 c 10.9259,0 19.9915,-7.965 21.7077,-18.405 2.003,10.087 10.903,17.691 21.578,17.691 h 56 c 12.15,0 22,-9.85 22,-22 v -56 C 200,110.36 192.035,101.294 181.596,99.578 191.682,97.5746 199.286,88.6752 199.286,78 V 22 C 199.286,9.84974 189.436,2.97894e-6 177.286,2.44784e-6 L 121.286,0 C 110.36,-4.77585e-7 101.294,7.96461 99.5781,18.4046 97.5747,8.31778 88.6753,0.71428 78,0.71428 H 22 C 9.84974,0.71428 0,10.564 0,22.7143 v 56 c 0,10.9258 7.96462,19.9915 18.4046,21.7077 z"
       fill="currentColor"
       id="path1"
       style="fill:#000000" />
  </g>
  <defs
     id="defs2">
    <linearGradient
       id="paint0_linear_105_672"
       x1="157.5"
       y1="32"
       x2="44"
       y2="147.5"
       gradientUnits="userSpaceOnUse">
      <stop
         offset="0.0509862"
         stop-color="#FFB6E1"
         id="stop1" />
      <stop
         offset="1"
         stop-color="#FBE3EA"
         id="stop2" />
    </linearGradient>
    <clipPath
       id="clip0_105_672">
      <rect
         width="200"
         height="200"
         fill="white"
         id="rect2" />
    </clipPath>
  </defs>
</svg>
