<?xml version="1.0" encoding="UTF-8" standalone="no"?>
<svg
   width="200"
   height="200"
   viewBox="0 0 200 200"
   fill="none"
   version="1.1"
   id="svg2"
   sodipodi:docname="shape-6.svg"
   inkscape:version="1.4 (e7c3feb100, 2024-10-09)"
   xmlns:inkscape="http://www.inkscape.org/namespaces/inkscape"
   xmlns:sodipodi="http://sodipodi.sourceforge.net/DTD/sodipodi-0.dtd"
   xmlns="http://www.w3.org/2000/svg"
   xmlns:svg="http://www.w3.org/2000/svg">
  <sodipodi:namedview
     id="namedview2"
     pagecolor="#ffffff"
     bordercolor="#000000"
     borderopacity="0.25"
     inkscape:showpageshadow="2"
     inkscape:pageopacity="0.0"
     inkscape:pagecheckerboard="0"
     inkscape:deskcolor="#d1d1d1"
     inkscape:zoom="3.91"
     inkscape:cx="100.12788"
     inkscape:cy="100"
     inkscape:window-width="1920"
     inkscape:window-height="1007"
     inkscape:window-x="0"
     inkscape:window-y="36"
     inkscape:window-maximized="1"
     inkscape:current-layer="g1" />
  <g
     clip-path="url(#clip0_103_21)"
     id="g1"
     transform="matrix(1,0,0,0.98721228,-0.08064332,1.2787705)"
     style="fill:#000000">
    <path
       d="m 71.5579,16.3347 c 12.7786,-21.7796 44.2671,-21.77959 57.0451,0 l 0.464,0.791 c 5.896,10.0476 16.642,16.2523 28.291,16.3339 l 0.918,0.0064 c 25.251,0.1768 40.995,27.4463 28.522,49.4027 l -0.453,0.7974 c -5.754,10.1292 -5.754,22.5389 0,32.6679 l 0.453,0.797 c 12.473,21.957 -3.271,49.226 -28.522,49.403 l -0.918,0.006 c -11.649,0.082 -22.395,6.287 -28.291,16.334 l -0.464,0.791 c -12.778,21.78 -44.2665,21.78 -57.0451,0 l -0.4641,-0.791 C 65.1986,172.827 54.4517,166.622 42.8027,166.54 l -0.9171,-0.006 C 16.6346,166.357 0.890585,139.088 13.3629,117.131 l 0.453,-0.797 c 5.7539,-10.129 5.7539,-22.5387 0,-32.6679 l -0.453,-0.7974 C 0.890585,60.9123 16.6346,33.6428 41.8856,33.466 l 0.9171,-0.0064 C 54.4518,33.378 65.1986,27.1733 71.0938,17.1257 Z"
       fill="currentColor"
       id="path1"
       style="fill:#000000" />
  </g>
  <defs
     id="defs2">
    <linearGradient
       id="paint0_linear_103_21"
       x1="100.081"
       y1="0"
       x2="100.081"
       y2="200"
       gradientUnits="userSpaceOnUse">
      <stop
         stop-color="#B8DBFC"
         id="stop1" />
      <stop
         offset="1"
         stop-color="#F8FBFE"
         id="stop2" />
    </linearGradient>
    <clipPath
       id="clip0_103_21">
      <rect
         width="200"
         height="200"
         fill="white"
         id="rect2" />
    </clipPath>
  </defs>
</svg>
