<?xml version="1.0" encoding="UTF-8" standalone="no"?>
<svg
   viewBox="0 0 1000 1000"
   version="1.1"
   id="svg1"
   sodipodi:docname="cookie 12.svg"
   inkscape:version="1.4 (e7c3feb100, 2024-10-09)"
   xmlns:inkscape="http://www.inkscape.org/namespaces/inkscape"
   xmlns:sodipodi="http://sodipodi.sourceforge.net/DTD/sodipodi-0.dtd"
   xmlns="http://www.w3.org/2000/svg"
   xmlns:svg="http://www.w3.org/2000/svg">
  <defs
     id="defs1" />
  <sodipodi:namedview
     id="namedview1"
     pagecolor="#ffffff"
     bordercolor="#000000"
     borderopacity="0.25"
     inkscape:showpageshadow="2"
     inkscape:pageopacity="0.0"
     inkscape:pagecheckerboard="0"
     inkscape:deskcolor="#d1d1d1"
     inkscape:zoom="0.782"
     inkscape:cx="500"
     inkscape:cy="500"
     inkscape:window-width="1920"
     inkscape:window-height="1007"
     inkscape:window-x="0"
     inkscape:window-y="36"
     inkscape:window-maximized="1"
     inkscape:current-layer="svg1" />
  <path
     d="M 499.99999,986.76264 A 84.355308,83.804893 0 0 1 432.25351,953.43609 86.649946,86.08456 0 0 0 330.41523,926.2972 85.229456,84.673337 0 0 1 213.1701,858.99275 86.103604,85.541782 0 0 0 138.64896,784.95786 C 112.09671,781.59264 89.150315,766.50342 75.710285,743.38108 A 84.355308,83.804893 0 0 1 70.90247,668.47774 86.103604,85.541782 0 0 0 43.585337,567.30396 c -21.307364,-16.17477 -33.54544,-40.70834 -33.54544,-67.30445 0,-26.59611 12.238076,-51.02111 33.654708,-67.30444 A 86.103604,85.541782 0 0 0 71.011738,331.52128 84.355308,83.804893 0 0 1 75.710285,256.61795 84.355308,83.804893 0 0 1 138.64896,215.04116 86.103604,85.541782 0 0 0 213.1701,141.00628 85.229456,84.673337 0 0 1 330.41523,73.701824 86.649946,86.08456 0 0 0 432.25351,46.562934 c 16.281,-21.168334 40.97569,-33.326557 67.74648,-33.326557 26.7708,0 51.35622,12.158223 67.74649,33.435113 a 86.649946,86.08456 0 0 0 101.83828,27.13889 84.683113,84.130559 0 0 1 117.24514,67.1959 86.103604,85.541782 0 0 0 74.52113,74.03488 c 26.55226,3.36523 49.49865,18.45446 62.93867,41.57679 a 84.355308,83.804893 0 0 1 4.80783,74.90333 86.103604,85.541782 0 0 0 27.31713,101.28234 c 21.30737,16.06623 33.54544,40.59978 33.54544,67.30445 0,26.70466 -12.23807,51.02112 -33.6547,67.19589 a 86.103604,85.541782 0 0 0 -27.31715,101.17378 c 10.38051,24.53356 8.74149,51.88956 -4.69855,74.90334 a 84.355308,83.804893 0 0 1 -62.93867,41.57678 86.103604,85.541782 0 0 0 -74.52113,74.03489 85.229456,84.673337 0 0 1 -117.24514,67.30445 85.557262,84.999004 0 0 0 -101.94754,27.13889 84.355308,83.804893 0 0 1 -67.74649,33.32655 z"
     fill="currentColor"
     id="path1" />
</svg>
