<?xml version="1.0" encoding="UTF-8" standalone="no"?>
<svg
   width="200"
   height="200"
   viewBox="0 0 200 200"
   fill="none"
   version="1.1"
   id="svg2"
   sodipodi:docname="shape-53.svg"
   inkscape:version="1.4 (e7c3feb100, 2024-10-09)"
   xmlns:inkscape="http://www.inkscape.org/namespaces/inkscape"
   xmlns:sodipodi="http://sodipodi.sourceforge.net/DTD/sodipodi-0.dtd"
   xmlns="http://www.w3.org/2000/svg"
   xmlns:svg="http://www.w3.org/2000/svg">
  <sodipodi:namedview
     id="namedview2"
     pagecolor="#ffffff"
     bordercolor="#000000"
     borderopacity="0.25"
     inkscape:showpageshadow="2"
     inkscape:pageopacity="0.0"
     inkscape:pagecheckerboard="0"
     inkscape:deskcolor="#d1d1d1"
     inkscape:zoom="3.91"
     inkscape:cx="100.12788"
     inkscape:cy="100"
     inkscape:window-width="1920"
     inkscape:window-height="1007"
     inkscape:window-x="0"
     inkscape:window-y="36"
     inkscape:window-maximized="1"
     inkscape:current-layer="g1" />
  <g
     clip-path="url(#clip0_116_2)"
     id="g1"
     transform="matrix(0.97826087,0,0,0.9769821,2.5575448,2.5575448)"
     style="fill:#000000">
    <path
       fill-rule="evenodd"
       clip-rule="evenodd"
       d="M 29.2893,29.2893 C 19.2658,39.3128 15.6458,53.315 18.4294,66.2123 7.34132,73.3638 0,85.8246 0,100 c -1.74156e-6,14.175 7.34132,26.636 18.4294,33.788 -2.7836,12.897 0.8364,26.899 10.8599,36.923 10.0236,10.023 24.0257,13.643 36.923,10.86 C 73.3639,192.659 85.8246,200 100,200 c 14.175,0 26.636,-7.341 33.788,-18.429 12.897,2.783 26.899,-0.837 36.923,-10.86 10.023,-10.024 13.643,-24.026 10.86,-36.923 C 192.659,126.636 200,114.175 200,100 200,85.8246 192.659,73.3638 181.571,66.2123 184.354,53.315 180.734,39.3129 170.711,29.2893 160.687,19.2658 146.685,15.6458 133.788,18.4294 126.636,7.34133 114.175,0 100,0 85.8246,0 73.3638,7.34131 66.2123,18.4293 53.315,15.6458 39.3129,19.2658 29.2893,29.2893 Z"
       fill="currentColor"
       id="path1"
       style="fill:#000000" />
  </g>
  <defs
     id="defs2">
    <linearGradient
       id="paint0_linear_116_2"
       x1="177"
       y1="-9.23648e-06"
       x2="39.5"
       y2="152.5"
       gradientUnits="userSpaceOnUse">
      <stop
         stop-color="#B0B9FF"
         id="stop1" />
      <stop
         offset="1"
         stop-color="#E7E9FF"
         id="stop2" />
    </linearGradient>
    <clipPath
       id="clip0_116_2">
      <rect
         width="200"
         height="200"
         fill="white"
         id="rect2" />
    </clipPath>
  </defs>
</svg>
