<?xml version="1.0" encoding="UTF-8" standalone="no"?>
<svg
   width="200"
   height="200"
   viewBox="0 0 200 200"
   fill="none"
   version="1.1"
   id="svg2"
   sodipodi:docname="shape-49.svg"
   inkscape:version="1.4 (e7c3feb100, 2024-10-09)"
   xmlns:inkscape="http://www.inkscape.org/namespaces/inkscape"
   xmlns:sodipodi="http://sodipodi.sourceforge.net/DTD/sodipodi-0.dtd"
   xmlns="http://www.w3.org/2000/svg"
   xmlns:svg="http://www.w3.org/2000/svg">
  <sodipodi:namedview
     id="namedview2"
     pagecolor="#ffffff"
     bordercolor="#000000"
     borderopacity="0.25"
     inkscape:showpageshadow="2"
     inkscape:pageopacity="0.0"
     inkscape:pagecheckerboard="0"
     inkscape:deskcolor="#d1d1d1"
     inkscape:zoom="3.91"
     inkscape:cx="100.38363"
     inkscape:cy="100"
     inkscape:window-width="1920"
     inkscape:window-height="1007"
     inkscape:window-x="0"
     inkscape:window-y="36"
     inkscape:window-maximized="1"
     inkscape:current-layer="g1" />
  <g
     clip-path="url(#clip0_105_672)"
     id="g1"
     transform="matrix(0.98337596,0,0,0.98465473,1.6624041,1.534527)"
     style="fill:#000000">
    <path
       fill-rule="evenodd"
       clip-rule="evenodd"
       d="M 19.771377,100.41604 C 9.8535082,102.39073 2.3773612,111.16496 2.3773612,121.68911 l -3e-6,55.20865 c 0,11.9783 9.6847538,21.68911 21.6315288,21.68911 H 79.07085 c 10.742884,0 19.656633,-7.85244 21.34408,-18.14491 1.96945,9.94446 10.72037,17.441 21.21655,17.441 h 55.06197 c 11.94648,0 21.63148,-9.71081 21.63148,-21.68911 V 120.9852 c 0,-10.7716 -7.83158,-19.70948 -18.09572,-21.401242 9.91705,-1.975083 17.39368,-10.748722 17.39368,-21.273068 V 23.102243 c 0,-11.978561 -9.68501,-21.6891083 -21.63148,-21.6891088 l -55.06197,-2.4e-6 C 110.18646,1.4131313 101.27232,9.2651922 99.585163,19.557651 97.615326,9.6133712 88.864996,2.1173181 78.368515,2.1173181 H 23.306552 c -11.946735,0 -21.6314855,9.7105309 -21.6314855,21.6891309 v 55.208647 c 0,10.771404 7.8312077,19.708992 18.0963105,21.400944 z"
       fill="none"
       id="path1"
       stroke="currentColor"
       stroke-width="1.96912" />
  </g>
  <defs
     id="defs2">
    <linearGradient
       id="paint0_linear_105_672"
       x1="157.5"
       y1="32"
       x2="44"
       y2="147.5"
       gradientUnits="userSpaceOnUse">
      <stop
         offset="0.0509862"
         stop-color="#FFB6E1"
         id="stop1" />
      <stop
         offset="1"
         stop-color="#FBE3EA"
         id="stop2" />
    </linearGradient>
    <clipPath
       id="clip0_105_672">
      <rect
         width="200"
         height="200"
         fill="white"
         id="rect2" />
    </clipPath>
  </defs>
</svg>
