<?xml version="1.0" encoding="UTF-8" standalone="no"?>
<svg
   viewBox="0 0 1000 1000"
   version="1.1"
   id="svg1"
   sodipodi:docname="cookie 12.svg"
   inkscape:version="1.4 (e7c3feb100, 2024-10-09)"
   xmlns:inkscape="http://www.inkscape.org/namespaces/inkscape"
   xmlns:sodipodi="http://sodipodi.sourceforge.net/DTD/sodipodi-0.dtd"
   xmlns="http://www.w3.org/2000/svg"
   xmlns:svg="http://www.w3.org/2000/svg">
  <defs
     id="defs1" />
  <sodipodi:namedview
     id="namedview1"
     pagecolor="#ffffff"
     bordercolor="#000000"
     borderopacity="0.25"
     inkscape:showpageshadow="2"
     inkscape:pageopacity="0.0"
     inkscape:pagecheckerboard="0"
     inkscape:deskcolor="#d1d1d1"
     inkscape:zoom="0.782"
     inkscape:cx="578.6445"
     inkscape:cy="498.72123"
     inkscape:window-width="1920"
     inkscape:window-height="1007"
     inkscape:window-x="0"
     inkscape:window-y="36"
     inkscape:window-maximized="1"
     inkscape:current-layer="svg1" />
  <path
     d="M 499.99999,982.3249 A 83.701353,83.040857 0 0 1 432.7787,949.30218 85.978202,85.299741 0 0 0 331.72991,922.41071 84.568724,83.901384 0 0 1 215.39371,855.71986 85.436096,84.761911 0 0 0 141.45029,782.35994 C 115.10388,779.0254 92.335381,764.07374 78.999543,741.16221 A 83.701353,83.040857 0 0 1 74.229,666.94175 85.436096,84.761911 0 0 0 47.12364,566.69035 c -21.142181,-16.0273 -33.285383,-40.3372 -33.285383,-66.69084 0,-26.35364 12.143202,-50.55596 33.393804,-66.69084 a 85.436096,84.761911 0 0 0 27.10536,-100.2514 83.701353,83.040857 0 0 1 4.662122,-74.22045 83.701353,83.040857 0 0 1 62.450747,-41.19774 85.436096,84.761911 0 0 0 73.94342,-73.35992 84.568724,83.901384 0 0 1 116.3362,-66.690849 85.978202,85.299741 0 0 0 101.04879,-26.891469 c 16.15479,-20.975346 40.65803,-33.022724 67.22129,-33.022724 26.56326,0 50.95808,12.047378 67.22129,33.13029 a 85.978202,85.299741 0 0 0 101.04879,26.891469 84.026617,83.363554 0 0 1 116.33621,66.583283 85.436096,84.761911 0 0 0 73.94341,73.35992 c 26.34642,3.33455 49.11492,18.28621 62.45075,41.19774 a 83.701353,83.040857 0 0 1 4.77056,74.22045 85.436096,84.761911 0 0 0 27.10535,100.35896 c 21.14219,15.91976 33.28539,40.22964 33.28539,66.69085 0,26.4612 -12.1432,50.55597 -33.3938,66.58327 a 85.436096,84.761911 0 0 0 -27.10538,100.2514 c 10.30004,24.30989 8.67373,51.41649 -4.66212,74.22046 a 83.701353,83.040857 0 0 1 -62.45075,41.19773 85.436096,84.761911 0 0 0 -73.94341,73.35992 84.568724,83.901384 0 0 1 -116.33621,66.69085 84.893989,84.224082 0 0 0 -101.1572,26.89147 83.701353,83.040857 0 0 1 -67.2213,33.02272 z"
     fill="none"
     id="path1"
     stroke="currentColor"
     stroke-width="8.92409" />
</svg>
